<svg width="245" height="245" viewBox="0 0 245 245" fill="none" xmlns="http://www.w3.org/2000/svg">
<g filter="url(#filter0_i_7_409)">
<path d="M220 122.5C220 176.348 176.348 220 122.5 220C68.6522 220 25 176.348 25 122.5C25 68.6522 68.6522 25 122.5 25C176.348 25 220 68.6522 220 122.5ZM34.1533 122.5C34.1533 171.293 73.7075 210.847 122.5 210.847C171.293 210.847 210.847 171.293 210.847 122.5C210.847 73.7075 171.293 34.1533 122.5 34.1533C73.7075 34.1533 34.1533 73.7075 34.1533 122.5Z" fill="#D9D9D9" fill-opacity="0.08"/>
</g>
<g filter="url(#filter1_di_7_409)">
<path d="M220 122.5C220 176.348 176.348 220 122.5 220C68.6522 220 25 176.348 25 122.5C25 68.6522 68.6522 25 122.5 25C176.348 25 220 68.6522 220 122.5ZM34.1533 122.5C34.1533 171.293 73.7075 210.847 122.5 210.847C171.293 210.847 210.847 171.293 210.847 122.5C210.847 73.7075 171.293 34.1533 122.5 34.1533C73.7075 34.1533 34.1533 73.7075 34.1533 122.5Z" fill="#EB1E1E"/>
</g>
<defs>
<filter id="filter0_i_7_409" x="25" y="25" width="395" height="195" filterUnits="userSpaceOnUse" color-interpolation-filters="sRGB">
<feFlood flood-opacity="0" result="BackgroundImageFix"/>
<feBlend mode="normal" in="SourceGraphic" in2="BackgroundImageFix" result="shape"/>
<feColorMatrix in="SourceAlpha" type="matrix" values="0 0 0 0 0 0 0 0 0 0 0 0 0 0 0 0 0 0 127 0" result="hardAlpha"/>
<feOffset/>
<feGaussianBlur stdDeviation="2.4375"/>
<feComposite in2="hardAlpha" operator="arithmetic" k2="-1" k3="1"/>
<feColorMatrix type="matrix" values="0 0 0 0 1 0 0 0 0 1 0 0 0 0 1 0 0 0 0.25 0"/>
<feBlend mode="normal" in2="shape" result="effect1_innerShadow_7_409"/>
</filter>
<filter id="filter1_di_7_409" x="0.625002" y="0.625002" width="243.75" height="243.75" filterUnits="userSpaceOnUse" color-interpolation-filters="sRGB">
<feFlood flood-opacity="0" result="BackgroundImageFix"/>
<feColorMatrix in="SourceAlpha" type="matrix" values="0 0 0 0 0 0 0 0 0 0 0 0 0 0 0 0 0 0 127 0" result="hardAlpha"/>
<feOffset/>
<feGaussianBlur stdDeviation="12.1875"/>
<feComposite in2="hardAlpha" operator="out"/>
<feColorMatrix type="matrix" values="0 0 0 0 0.921569 0 0 0 0 0.117647 0 0 0 0 0.117647 0 0 0 1 0"/>
<feBlend mode="normal" in2="BackgroundImageFix" result="effect1_dropShadow_7_409"/>
<feBlend mode="normal" in="SourceGraphic" in2="effect1_dropShadow_7_409" result="shape"/>
<feColorMatrix in="SourceAlpha" type="matrix" values="0 0 0 0 0 0 0 0 0 0 0 0 0 0 0 0 0 0 127 0" result="hardAlpha"/>
<feOffset/>
<feGaussianBlur stdDeviation="0.8125"/>
<feComposite in2="hardAlpha" operator="arithmetic" k2="-1" k3="1"/>
<feColorMatrix type="matrix" values="0 0 0 0 1 0 0 0 0 1 0 0 0 0 1 0 0 0 0.65 0"/>
<feBlend mode="normal" in2="shape" result="effect2_innerShadow_7_409"/>
</filter>
</defs>
</svg>
